<?xml version="1.0" encoding="utf-8"?>
<!-- Generator: Adobe Illustrator 23.0.0, SVG Export Plug-In . SVG Version: 6.00 Build 0)  -->
<svg version="1.1" id="Layer_1" xmlns="http://www.w3.org/2000/svg" xmlns:xlink="http://www.w3.org/1999/xlink" x="0px" y="0px"
	 viewBox="0 0 88.3 20" style="enable-background:new 0 0 88.3 20;" xml:space="preserve">
<style type="text/css">
	.st0{fill:none;}
	.st1{fill:#002F56;}
</style>
<rect x="6.7" y="2" class="st0" width="75" height="16"/>
<g>
	<path id="XMLID_56_" class="st1" d="M7.6,17.4v-0.9c1.6,0,2.1-0.5,2.1-1.8V4.9c0-1.3-0.5-1.8-2.1-1.8V2.2h11.6l0.6,2.2
		C19.9,4.6,20,4.8,20,4.9c0,0.1-0.2,0.4-0.5,0.4c-0.2,0-0.2-0.1-0.5-0.5c-1.1-1.6-2.5-1.9-4.6-1.9c-1.5,0-1.6,0.2-1.6,1.2v4.7h1.9
		c1.4,0,1.9-0.3,2.2-1.7c0-0.3,0.1-0.3,0.5-0.3c0.3,0,0.4,0.1,0.4,0.5v4.7c0,0.2-0.2,0.3-0.5,0.3c-0.3,0-0.3-0.1-0.3-0.2
		c-0.6-2.1-1.1-2.2-2.3-2.2h-1.9v5.1c0,1.3,0.2,1.5,2.5,1.5c2.9,0,3.8-0.9,4.9-2.9c0.1-0.1,0.1-0.2,0.4-0.2c0.3,0,0.4,0.1,0.4,0.2
		c0,0.1,0,0.2,0,0.4l-0.5,3.4H7.6z"/>
	<path id="XMLID_58_" class="st1" d="M24.8,4.9c0-1.3-0.5-1.8-2.2-1.8V2.2h6.2c3.9,0,6,1.3,6,3.6c0,2.1-2,3.1-3.4,3.5v0
		c2.9,0.4,4.3,2.3,4.3,4c0,1.6-1.2,4-5.5,4h-7.5v-0.9c1.7,0,2.2-0.5,2.2-1.8V4.9z M28,8c0,0.7,0.3,0.9,1.3,0.9
		c1.5,0,2.7-0.6,2.7-2.9c0-2.2-1.1-2.9-2.8-2.9c-1,0-1.2,0.4-1.2,1.2V8z M28,14.8c0,1.3,0.4,1.6,1.8,1.6c1.9,0,2.9-1.3,2.9-3.3
		c0-2.3-1.5-3.3-3.5-3.3c-1,0-1.2,0.2-1.2,1.1V14.8z"/>
	<path id="XMLID_62_" class="st1" d="M46.7,5.3c0,0.5-0.1,0.6-0.4,0.6c-0.3,0-0.4-0.1-0.7-0.8c-0.5-1.1-1.8-2.3-3.3-2.3
		c-1.4,0-2.6,1-2.6,2.2c0,3.4,7.7,2.5,7.7,7.7c0,2.1-1.2,4.6-5.6,4.6c-1.3,0-3.4-0.5-4.2-0.9c-0.2-0.2-0.4-2.1-0.4-3.1
		c0-0.5,0.1-0.7,0.5-0.7c0.4,0,0.5,0,0.7,0.7c0.3,0.9,1.3,3.1,3.9,3.1c1.5,0,2.9-0.8,2.9-2.4c0-3.6-7.7-3.1-7.7-7.9
		c0-3,2.9-4.4,5.2-4.4c2.2,0,3.8,0.7,3.9,0.9c0,0.3,0.1,0.6,0.1,1.6V5.3z"/>
	<path id="XMLID_64_" class="st1" d="M62.9,14.7c-0.1,0.6-0.2,0.9-0.4,1.1c-0.4,0.4-2.3,1.7-5.7,1.7c-4.5,0-8.1-3.5-8.1-7.8
		S52.4,2,56.9,2c2.7,0,5.9,1.1,5.9,2.2c0,1.1-0.2,2-0.2,2.3c0,0.1-0.1,0.5-0.4,0.5c-0.2,0-0.3-0.1-0.7-1c-0.8-2-2.5-3.2-4.7-3.2
		c-2.1,0-4.7,1.8-4.7,6.9c0,5,2.6,6.9,5.4,6.9c2.6,0,4.2-2.5,4.5-3.3c0.2-0.5,0.3-0.5,0.6-0.5c0.2,0,0.4,0.1,0.4,0.3
		c0,0.1,0,0.4,0,0.7L62.9,14.7z"/>
	<path id="XMLID_66_" class="st1" d="M72.6,2c4.5,0,8.1,3.5,8.1,7.8s-3.6,7.8-8.1,7.8s-8.1-3.5-8.1-7.8S68.2,2,72.6,2z M72.6,16.6
		c2.1,0,4.7-1.8,4.7-6.9c0-5-2.6-6.9-4.7-6.9s-4.7,1.8-4.7,6.9C67.9,14.8,70.5,16.6,72.6,16.6z"/>
</g>
</svg>
